<svg xmlns="http://www.w3.org/2000/svg" width="51.843" height="20" viewBox="0 0 51.843 20">
  <path id="about-dot-me" d="M42.2,14.9a4.955,4.955,0,0,0-4.955,4.571H47.2a4.908,4.908,0,0,0-5-4.569m-4.882,7.813a5.3,5.3,0,0,0,5.469,4.255,7.574,7.574,0,0,0,5.15-1.974l2.539,2.916a11.407,11.407,0,0,1-8.079,3.08,9.782,9.782,0,0,1-10.147-9.95,9.743,9.743,0,0,1,9.872-9.98,9.6,9.6,0,0,1,9.721,9.945V22.66H37.32v.05ZM23.306,30.985V18.694c0-2.108-.939-3.318-2.89-3.318a5.032,5.032,0,0,0-3.708,2.175V31.03H11.632V18.717c0-2.108-.9-3.309-2.847-3.309a4.963,4.963,0,0,0-3.708,2.173V31.06H0V11.351H5.076v2.484a7.722,7.722,0,0,1,5.854-2.722c2.694,0,4.528,1.135,5.35,3.435a7.628,7.628,0,0,1,6.286-3.435c3.672,0,5.811,2.182,5.811,6.4V30.991H23.293l.01-.013Z" transform="translate(0 -11.06)"/>
</svg>
