<svg xmlns="http://www.w3.org/2000/svg" width="105.644" height="30" viewBox="0 0 105.644 30">
  <path id="ansys" d="M83.819,19.719l-4.372,9.751-4.372-9.751H69.681L76.753,35.5l-3.1,6.913h5.4l10.168-22.7Zm20.542,8.558a8.579,8.579,0,0,0-4.05-1.741l-3.075-.644a5.063,5.063,0,0,1-1.552-.574.97.97,0,0,1-.446-.845,1.261,1.261,0,0,1,.739-1.151,4.281,4.281,0,0,1,2.04-.4,10.635,10.635,0,0,1,5.7,1.822l1.479-3.38a12.169,12.169,0,0,0-3.331-1.529,13.535,13.535,0,0,0-3.815-.539,11.543,11.543,0,0,0-4.088.676,6.467,6.467,0,0,0-2.773,1.864,4.18,4.18,0,0,0-.986,2.742,3.985,3.985,0,0,0,1.241,3.1,8.071,8.071,0,0,0,3.874,1.674l2.958.612a5.724,5.724,0,0,1,1.869.606,1.079,1.079,0,0,1,.5.95,1.194,1.194,0,0,1-.722,1.068,4.345,4.345,0,0,1-2.022.386,13.263,13.263,0,0,1-6.849-1.926l-1.485,3.522a12.038,12.038,0,0,0,3.609,1.5,18.887,18.887,0,0,0,4.613.523,10.449,10.449,0,0,0,5.758-1.368,4.285,4.285,0,0,0,2.089-3.774,4.1,4.1,0,0,0-1.277-3.168ZM63.066,26.536l-3.072-.644a5.064,5.064,0,0,1-1.558-.574.971.971,0,0,1-.44-.845,1.261,1.261,0,0,1,.74-1.151,4.265,4.265,0,0,1,2.04-.4,10.631,10.631,0,0,1,5.7,1.822l1.485-3.38a12.188,12.188,0,0,0-3.331-1.529,13.545,13.545,0,0,0-3.815-.539,11.545,11.545,0,0,0-4.094.676,6.473,6.473,0,0,0-2.773,1.864,4.167,4.167,0,0,0-.983,2.742,3.985,3.985,0,0,0,1.241,3.1,8.1,8.1,0,0,0,3.874,1.674l2.958.612a5.724,5.724,0,0,1,1.869.606,1.084,1.084,0,0,1,.5.95,1.194,1.194,0,0,1-.722,1.068,4.361,4.361,0,0,1-2.022.386,13.319,13.319,0,0,1-6.849-1.926l-1.479,3.522a11.974,11.974,0,0,0,3.609,1.5,18.88,18.88,0,0,0,4.61.523,10.442,10.442,0,0,0,5.758-1.368A4.285,4.285,0,0,0,68.4,31.45a4.067,4.067,0,0,0-1.277-3.163,8.55,8.55,0,0,0-4.058-1.746ZM43.235,19.293a8.151,8.151,0,0,0-3.46.708,6.191,6.191,0,0,0-2.5,2.066V19.7H31.837V36.319h5.59V27.005A3.586,3.586,0,0,1,38.484,24.3a3.823,3.823,0,0,1,2.791-1.019,2.694,2.694,0,0,1,2.13.781,3.679,3.679,0,0,1,.687,2.471v9.778h5.59V26.286a7.553,7.553,0,0,0-1.593-5.258,6.253,6.253,0,0,0-4.851-1.741ZM19.509,13.16l-3.595,8.032L22.684,36.3h7.6Zm-1.637-.751H10.708L0,36.3H7.166Z" transform="translate(0 -12.409)"/>
</svg>
