<svg xmlns="http://www.w3.org/2000/svg" width="72.257" height="30" viewBox="0 0 72.257 30">
  <path id="applepay" d="M13.209,14.366a4.42,4.42,0,0,1-3.559,1.7,5.132,5.132,0,0,1,1.271-3.726A5.3,5.3,0,0,1,14.449,10.5,5.455,5.455,0,0,1,13.209,14.366Zm1.224,1.969c-1.961-.114-3.643,1.13-4.571,1.13-.949,0-2.373-1.072-3.926-1.042a5.793,5.793,0,0,0-4.924,3.025c-2.118,3.679-.55,9.133,1.5,12.128,1,1.485,2.2,3.109,3.784,3.053,1.493-.056,2.086-.986,3.892-.986s2.343.986,3.926.958c1.636-.03,2.666-1.485,3.667-2.969a13.05,13.05,0,0,0,1.638-3.413,5.37,5.37,0,0,1-3.192-4.894,5.491,5.491,0,0,1,2.583-4.595,5.574,5.574,0,0,0-4.374-2.4ZM25.771,12.2v22.25h3.419V26.842h4.727a7.023,7.023,0,0,0,7.353-7.335A6.941,6.941,0,0,0,34.031,12.2H25.767Zm3.419,2.911h3.938c2.963,0,4.655,1.6,4.655,4.408s-1.692,4.426-4.669,4.426H29.185V15.107ZM47.508,34.614a5.637,5.637,0,0,0,5.04-2.838h.07v2.672h3.162V23.373c0-3.21-2.541-5.281-6.45-5.281-3.629,0-6.309,2.1-6.407,4.98H46a3,3,0,0,1,3.23-2.266c2.09,0,3.26.986,3.26,2.8v1.224l-4.264.259c-3.965.241-6.112,1.883-6.112,4.735,0,2.881,2.216,4.794,5.392,4.794Zm.919-2.638c-1.821,0-2.981-.885-2.981-2.24,0-1.4,1.116-2.214,3.25-2.343l3.794-.241v1.255c0,2.084-1.746,3.569-4.065,3.569ZM60,40.5c3.33,0,4.9-1.285,6.263-5.183l6-17.01H68.788L64.766,31.449H64.7L60.673,18.3H57.1l5.783,16.2-.309.986c-.52,1.668-1.367,2.31-2.879,2.31q-.5-.005-1-.056v2.672a9.465,9.465,0,0,0,1.3.084Z" transform="translate(-0.004 -10.5)"/>
</svg>
